# xmcd CD database file
#
# Track frame offsets:
#	150
#	5353
#	27935
#	45018
#	64276
#	86142
#	105668
#	120143
#	138835
#	161411
#	181099
#	206087
#	238237
#
# Disc length: 4440 seconds
#
# Revision: 1
# Processed by: cddbd v1.5.2PL0 Copyright (c) Steve Scherf et al.
# Submitted via: CDex 1.70beta2
#
DISCID=9c11560d
DTITLE=林　明日香 - 咲
DYEAR=2003
DGENRE=Blues
TTITLE0=咲　-序章-
TTITLE1=「母」
TTITLE2=隠し物
TTITLE3=笹舟
TTITLE4=掌　紅　蕾
TTITLE5=ake-kaze
TTITLE6=五月の空
TTITLE7=千切れ雲
TTITLE8=つゆくさ
TTITLE9=道標
TTITLE10=小さきもの
TTITLE11=jibun shinjite
TTITLE12=data
EXTD=YEAR: 2003
EXTT0=
EXTT1=
EXTT2=
EXTT3=
EXTT4=
EXTT5=
EXTT6=
EXTT7=
EXTT8=
EXTT9=
EXTT10=
EXTT11=
EXTT12=
PLAYORDER=
